REM DIRINDEX 1\6,1\2\7,1\2\8,1\2\9,1\3\10,1\3\11,1\4\12,1\4\13,1\4\14,1\5\15,1\5\16,1\5\17
REM DIRNAME cjc040,folder01,folder02,folder03,folder04,folder05,folder06,folder07,folder08,folder09,folder10,folder11,folder12,folder13,folder14,folder15,folder16
TITLE ""
FILE "P2Q_t2_0108-0125.mp3" MP3
  TRACK 01 AUDIO
    TITLE "7:cjc040_4150"
    INDEX 01 00:00:00
  TRACK 02 AUDIO
    TITLE "0:"
    INDEX 01 00:01:17
  TRACK 03 AUDIO
    TITLE "8:cjc040_4151"
    INDEX 01 00:02:02
  TRACK 04 AUDIO
    TITLE "0:"
    INDEX 01 00:03:17
  TRACK 05 AUDIO
    TITLE "9:cjc040_4152"
    INDEX 01 00:03:72
  TRACK 06 AUDIO
    TITLE "0:"
    INDEX 01 00:05:22
  TRACK 07 AUDIO
    TITLE "7:cjc040_4153"
    INDEX 01 00:07:09
  TRACK 08 AUDIO
    TITLE "0:"
    INDEX 01 00:08:19
  TRACK 09 AUDIO
    TITLE "8:cjc040_4154"
    INDEX 01 00:09:02
  TRACK 10 AUDIO
    TITLE "0:"
    INDEX 01 00:12:34
  TRACK 11 AUDIO
    TITLE "9:cjc040_4155"
    INDEX 01 00:13:10
  TRACK 12 AUDIO
    TITLE "0:"
    INDEX 01 00:14:19
  TRACK 13 AUDIO
    TITLE "7:cjc040_4156"
    INDEX 01 00:16:04
  TRACK 14 AUDIO
    TITLE "0:"
    INDEX 01 00:17:04
  TRACK 15 AUDIO
    TITLE "8:cjc040_4157"
    INDEX 01 00:17:63
  TRACK 16 AUDIO
    TITLE "0:"
    INDEX 01 00:19:11
  TRACK 17 AUDIO
    TITLE "9:cjc040_4158"
    INDEX 01 00:19:65
  TRACK 18 AUDIO
    TITLE "0:"
    INDEX 01 00:20:69
  TRACK 19 AUDIO
    TITLE "7:cjc040_4159"
    INDEX 01 00:22:56
  TRACK 20 AUDIO
    TITLE "0:"
    INDEX 01 00:23:69
  TRACK 21 AUDIO
    TITLE "8:cjc040_4160"
    INDEX 01 00:24:47
  TRACK 22 AUDIO
    TITLE "0:"
    INDEX 01 00:27:51
  TRACK 23 AUDIO
    TITLE "9:cjc040_4161"
    INDEX 01 00:28:31
  TRACK 24 AUDIO
    TITLE "0:"
    INDEX 01 00:29:42
  TRACK 25 AUDIO
    TITLE "7:cjc040_4162"
    INDEX 01 00:31:27
  TRACK 26 AUDIO
    TITLE "0:"
    INDEX 01 00:32:52
  TRACK 27 AUDIO
    TITLE "8:cjc040_4163"
    INDEX 01 00:33:32
  TRACK 28 AUDIO
    TITLE "0:"
    INDEX 01 00:34:49
  TRACK 29 AUDIO
    TITLE "9:cjc040_4164"
    INDEX 01 00:35:31
  TRACK 30 AUDIO
    TITLE "0:"
    INDEX 01 00:36:62
  TRACK 31 AUDIO
    TITLE "7:cjc040_4165"
    INDEX 01 00:38:47
  TRACK 32 AUDIO
    TITLE "0:"
    INDEX 01 00:39:52
  TRACK 33 AUDIO
    TITLE "8:cjc040_4166"
    INDEX 01 00:40:28
  TRACK 34 AUDIO
    TITLE "0:"
    INDEX 01 00:43:52
  TRACK 35 AUDIO
    TITLE "9:cjc040_4167"
    INDEX 01 00:44:42
  TRACK 36 AUDIO
    TITLE "0:"
    INDEX 01 00:45:51
  TRACK 37 AUDIO
    TITLE "7:cjc040_4168"
    INDEX 01 00:47:34
  TRACK 38 AUDIO
    TITLE "0:"
    INDEX 01 00:48:34
  TRACK 39 AUDIO
    TITLE "8:cjc040_4169"
    INDEX 01 00:49:16
  TRACK 40 AUDIO
    TITLE "0:"
    INDEX 01 00:52:45
  TRACK 41 AUDIO
    TITLE "9:cjc040_4170"
    INDEX 01 00:53:25
  TRACK 42 AUDIO
    TITLE "0:"
    INDEX 01 00:54:23
  TRACK 43 AUDIO
    TITLE "7:cjc040_4171"
    INDEX 01 00:56:08
  TRACK 44 AUDIO
    TITLE "0:"
    INDEX 01 00:57:29
  TRACK 45 AUDIO
    TITLE "8:cjc040_4172"
    INDEX 01 00:58:09
  TRACK 46 AUDIO
    TITLE "0:"
    INDEX 01 01:01:23
  TRACK 47 AUDIO
    TITLE "9:cjc040_4173"
    INDEX 01 01:02:03
  TRACK 48 AUDIO
    TITLE "0:"
    INDEX 01 01:03:22
  TRACK 49 AUDIO
    TITLE "7:cjc040_4174"
    INDEX 01 01:05:07
  TRACK 50 AUDIO
    TITLE "0:"
    INDEX 01 01:06:22
  TRACK 51 AUDIO
    TITLE "8:cjc040_4175"
    INDEX 01 01:07:02
  TRACK 52 AUDIO
    TITLE "0:"
    INDEX 01 01:08:48
  TRACK 53 AUDIO
    TITLE "9:cjc040_4176"
    INDEX 01 01:09:24
  TRACK 54 AUDIO
    TITLE "0:"
    INDEX 01 01:10:43
  TRACK 55 AUDIO
    TITLE "7:cjc040_4177"
    INDEX 01 01:12:23
  TRACK 56 AUDIO
    TITLE "0:"
    INDEX 01 01:13:44
  TRACK 57 AUDIO
    TITLE "8:cjc040_4178"
    INDEX 01 01:14:25
  TRACK 58 AUDIO
    TITLE "0:"
    INDEX 01 01:17:14
  TRACK 59 AUDIO
    TITLE "9:cjc040_4179"
    INDEX 01 01:17:65
  TRACK 60 AUDIO
    TITLE "0:"
    INDEX 01 01:19:11
  TRACK 61 AUDIO
    TITLE "7:cjc040_4180"
    INDEX 01 01:21:00
  TRACK 62 AUDIO
    TITLE "0:"
    INDEX 01 01:22:15
  TRACK 63 AUDIO
    TITLE "8:cjc040_4181"
    INDEX 01 01:22:68
  TRACK 64 AUDIO
    TITLE "0:"
    INDEX 01 01:25:43
  TRACK 65 AUDIO
    TITLE "9:cjc040_4182"
    INDEX 01 01:26:27
  TRACK 66 AUDIO
    TITLE "0:"
    INDEX 01 01:27:44
  TRACK 67 AUDIO
    TITLE "7:cjc040_4183"
    INDEX 01 01:29:31
  TRACK 68 AUDIO
    TITLE "0:"
    INDEX 01 01:30:56
  TRACK 69 AUDIO
    TITLE "8:cjc040_4184"
    INDEX 01 01:31:39
  TRACK 70 AUDIO
    TITLE "0:"
    INDEX 01 01:34:40
  TRACK 71 AUDIO
    TITLE "9:cjc040_4185"
    INDEX 01 01:35:26
  TRACK 72 AUDIO
    TITLE "0:"
    INDEX 01 01:36:54
  TRACK 73 AUDIO
    TITLE "7:cjc040_4186"
    INDEX 01 01:38:34
  TRACK 74 AUDIO
    TITLE "0:"
    INDEX 01 01:39:51
  TRACK 75 AUDIO
    TITLE "8:cjc040_4187"
    INDEX 01 01:40:38
  TRACK 76 AUDIO
    TITLE "0:"
    INDEX 01 01:45:65
  TRACK 77 AUDIO
    TITLE "9:cjc040_4188"
    INDEX 01 01:46:43
  TRACK 78 AUDIO
    TITLE "0:"
    INDEX 01 01:47:64
  TRACK 79 AUDIO
    TITLE "7:cjc040_4189"
    INDEX 01 01:49:43
  TRACK 80 AUDIO
    TITLE "0:"
    INDEX 01 01:50:60
  TRACK 81 AUDIO
    TITLE "8:cjc040_4190"
    INDEX 01 01:51:42
  TRACK 82 AUDIO
    TITLE "0:"
    INDEX 01 01:54:19
  TRACK 83 AUDIO
    TITLE "9:cjc040_4191"
    INDEX 01 01:54:72
  TRACK 84 AUDIO
    TITLE "0:"
    INDEX 01 01:56:16
  TRACK 85 AUDIO
    TITLE "7:cjc040_4192"
    INDEX 01 01:57:74
  TRACK 86 AUDIO
    TITLE "0:"
    INDEX 01 01:59:20
  TRACK 87 AUDIO
    TITLE "8:cjc040_4193"
    INDEX 01 01:59:71
  TRACK 88 AUDIO
    TITLE "0:"
    INDEX 01 02:02:56
  TRACK 89 AUDIO
    TITLE "9:cjc040_4194"
    INDEX 01 02:03:32
  TRACK 90 AUDIO
    TITLE "0:"
    INDEX 01 02:04:53
  TRACK 91 AUDIO
    TITLE "7:cjc040_4195"
    INDEX 01 02:06:32
  TRACK 92 AUDIO
    TITLE "0:"
    INDEX 01 02:07:43
  TRACK 93 AUDIO
    TITLE "8:cjc040_4196"
    INDEX 01 02:08:21
  TRACK 94 AUDIO
    TITLE "0:"
    INDEX 01 02:11:39
  TRACK 95 AUDIO
    TITLE "9:cjc040_4197"
    INDEX 01 02:12:15
  TRACK 96 AUDIO
    TITLE "0:"
    INDEX 01 02:13:32
  TRACK 97 AUDIO
    TITLE "7:cjc040_4198"
    INDEX 01 02:15:15
  TRACK 98 AUDIO
    TITLE "0:"
    INDEX 01 02:16:56
  TRACK 99 AUDIO
    TITLE "8:cjc040_4199"
    INDEX 01 02:17:38
  TRACK 100 AUDIO
    TITLE "0:"
    INDEX 01 02:18:74
  TRACK 101 AUDIO
    TITLE "9:cjc040_4200"
    INDEX 01 02:19:56
  TRACK 102 AUDIO
    TITLE "0:"
    INDEX 01 02:21:22
  TRACK 103 AUDIO
    TITLE "7:cjc040_4201"
    INDEX 01 02:23:07
  TRACK 104 AUDIO
    TITLE "0:"
    INDEX 01 02:24:18
  TRACK 105 AUDIO
    TITLE "8:cjc040_4202"
    INDEX 01 02:25:00
  TRACK 106 AUDIO
    TITLE "0:"
    INDEX 01 02:27:40
  TRACK 107 AUDIO
    TITLE "9:cjc040_4203"
    INDEX 01 02:28:20
  TRACK 108 AUDIO
    TITLE "0:"
    INDEX 01 02:29:39
